<svg data-qa="icn_usp_best_deals" xmlns="http://www.w3.org/2000/svg" width="24" height="24" viewBox="0 0 24 24" fill="none"><title id="title">usp_best_deals</title><path d="M20.8333 11.2525L18.6776 9.0968V5.89282C18.6776 5.57843 18.4218 5.32265 18.1074 5.32265H15.0588L12.9032 3.16701C12.7955 3.05933 12.6523 3 12.5 3C12.3477 3 12.2045 3.05933 12.0968 3.16701L9.94116 5.32269H6.89258C6.57818 5.32269 6.32241 5.57846 6.32241 5.89286V9.09687L4.16673 11.2525C3.94442 11.4748 3.94442 11.8365 4.16673 12.0588L6.32241 14.2145V17.4065C6.32241 17.7209 6.57818 17.9767 6.89258 17.9767H9.94116L12.0968 20.1324C12.2045 20.2401 12.3477 20.2994 12.5 20.2994C12.6523 20.2994 12.7955 20.2401 12.9032 20.1324L15.0588 17.9767H18.1074C18.4218 17.9767 18.6776 17.7209 18.6776 17.4065V14.2145L20.8333 12.0588C21.0556 11.8365 21.0556 11.4748 20.8333 11.2525Z" fill="#FEEE00" stroke="#404554" stroke-linecap="round" stroke-linejoin="round"/><path d="M10.3288 10.6391C10.9666 10.6391 11.4837 10.122 11.4837 9.48421C11.4837 8.84638 10.9666 8.32932 10.3288 8.32932C9.69098 8.32932 9.17392 8.84638 9.17392 9.48421C9.17392 10.122 9.69098 10.6391 10.3288 10.6391Z" fill="#FFEEB7" stroke="#404554" stroke-linecap="round"/><path d="M14.9666 14.842C15.6044 14.842 16.1214 14.3249 16.1214 13.6871C16.1214 13.0492 15.6044 12.5322 14.9666 12.5322C14.3287 12.5322 13.8117 13.0492 13.8117 13.6871C13.8117 14.3249 14.3287 14.842 14.9666 14.842Z" fill="#FFEEB7" stroke="#404554" stroke-linecap="round"/><path d="M15.422 8.32932L9.60139 14.8469" stroke="#404554" stroke-linecap="round"/></svg>