<svg data-qa="icn_usp_easy_retuns" xmlns="http://www.w3.org/2000/svg" width="24" height="24" viewBox="0 0 24 24" fill="none"><title id="title">usp_easy_retuns</title><path d="M15.4768 16.7807C14.6632 17.3121 13.6914 17.6211 12.6459 17.6211C11.8305 17.6211 11.0604 17.4332 10.3753 17.0989C9.52455 16.6837 8.80377 16.042 8.29198 15.2523C7.76672 14.4418 7.46167 13.4758 7.46167 12.4369C7.46167 11.2657 7.84944 10.1865 8.50381 9.31877C9.45083 8.06294 10.9537 7.25268 12.6459 7.25268C15.509 7.25268 17.8301 9.57373 17.8301 12.4369C17.8301 13.1716 17.6776 13.8693 17.4029 14.5013C16.9966 15.4361 16.3223 16.2284 15.4768 16.7807Z" fill="#FEEE00" stroke="#333848"/><path d="M10 12.4665L11.9502 14.1997L15.3329 11" stroke="#404553" stroke-linecap="round" stroke-linejoin="round"/><path d="M3.44269 4.85794L12.6196 4.85794C16.8053 4.85794 20.1985 8.25115 20.1985 12.4369V12.4369C20.1985 16.6226 16.8053 20.0158 12.6196 20.0158H10.1943" stroke="#333848" stroke-linecap="round"/><path d="M4.89474 3L3 4.85794L4.89474 7.04863" stroke="#333848" stroke-linecap="round"/><path d="M7.78084 20.0158H5.79318" stroke="#333848" stroke-linecap="round"/></svg>